HIERARCHY
ROOT Hips
{
	OFFSET 0.000000 103.266502 0.000000
	CHANNELS 6 Xposition Yposition Zposition Xrotation Yrotation Zrotation 
	JOINT Spine
	{
		OFFSET -0.002400 12.777504 0.315300
		CHANNELS 3 Xrotation Yrotation Zrotation
		JOINT Spine1
		{
			OFFSET -0.002067 5.816869 0.032633
			CHANNELS 3 Xrotation Yrotation Zrotation
			JOINT Spine1_split
			{
				OFFSET -0.002067 5.816869 0.032633
				CHANNELS 3 Xrotation Yrotation Zrotation
				JOINT Spine2
				{
					OFFSET -0.002067 5.816869 0.032633
					CHANNELS 3 Xrotation Yrotation Zrotation
					JOINT Neck
					{
						OFFSET -0.003700 21.199493 -0.826900
						CHANNELS 3 Xrotation Yrotation Zrotation
						JOINT Head
						{
							OFFSET 0.000000 20.442200 4.834800
							CHANNELS 3 Xrotation Yrotation Zrotation
							JOINT HeadTop_End
							{
								OFFSET 0.000000 34.668396 4.968400
								CHANNELS 3 Xrotation Yrotation Zrotation
								End Site
								{
									OFFSET 0.000000 0.000000 0.000000
								}
							}
						}
					}
					JOINT LeftShoulder
					{
						OFFSET 3.288150 8.794197 -1.372250
						CHANNELS 3 Xrotation Yrotation Zrotation
						JOINT LeftShoulder_split
						{
							OFFSET 3.288150 8.794197 -1.372250
							CHANNELS 3 Xrotation Yrotation Zrotation
							JOINT LeftArm
							{
								OFFSET 11.953299 -2.279007 -0.146200
								CHANNELS 3 Xrotation Yrotation Zrotation
								JOINT LeftForeArm
								{
									OFFSET 18.448900 0.000000 0.000000
									CHANNELS 3 Xrotation Yrotation Zrotation
									JOINT LeftHand
									{
										OFFSET 29.527798 0.000000 0.000000
										CHANNELS 3 Xrotation Yrotation Zrotation
										JOINT LeftHandThumb1
										{
											OFFSET 10.739754 -2.369614 9.225399
											CHANNELS 3 Xrotation Yrotation Zrotation
											JOINT LeftHandThumb2
											{
												OFFSET 4.926170 -2.844131 2.844125
												CHANNELS 3 Xrotation Yrotation Zrotation
												JOINT LeftHandThumb3
												{
													OFFSET 4.614891 -2.664413 2.664409
													CHANNELS 3 Xrotation Yrotation Zrotation
													JOINT LeftHandThumb4
													{
														OFFSET 4.432465 -2.559082 2.559083
														CHANNELS 3 Xrotation Yrotation Zrotation
														End Site
														{
															OFFSET 0.000000 0.000000 0.000000
														}
													}
												}
											}
										}
										JOINT LeftHandIndex1
										{
											OFFSET 26.467674 0.187653 6.405298
											CHANNELS 3 Xrotation Yrotation Zrotation
											JOINT LeftHandIndex2
											{
												OFFSET 8.792900 0.000000 0.000000
												CHANNELS 3 Xrotation Yrotation Zrotation
												JOINT LeftHandIndex3
												{
													OFFSET 10.075203 0.000000 0.000000
													CHANNELS 3 Xrotation Yrotation Zrotation
													End Site
													{
														OFFSET 0.000000 0.000000 0.000000
													}
												}
											}
										}
										JOINT LeftHandMiddle1
										{
											OFFSET 25.764404 0.000000 0.000000
											CHANNELS 3 Xrotation Yrotation Zrotation
											JOINT LeftHandMiddle2
											{
												OFFSET 9.393974 0.000000 0.000000
												CHANNELS 3 Xrotation Yrotation Zrotation
												JOINT LeftHandMiddle3
												{
													OFFSET 10.771950 0.000000 0.000000
													CHANNELS 3 Xrotation Yrotation Zrotation
													End Site
													{
														OFFSET 0.000000 0.000000 0.000000
													}
												}
											}
										}
										JOINT LeftHandRing1
										{
											OFFSET 24.660927 0.144547 -6.225808
											CHANNELS 3 Xrotation Yrotation Zrotation
											JOINT LeftHandRing2
											{
												OFFSET 9.393799 0.000000 0.000000
												CHANNELS 3 Xrotation Yrotation Zrotation
												JOINT LeftHandRing3
												{
													OFFSET 9.928497 0.000000 0.000000
													CHANNELS 3 Xrotation Yrotation Zrotation
													End Site
													{
														OFFSET 0.000000 0.000000 0.000000
													}
												}
											}
										}
										JOINT LeftHandPinky1
										{
											OFFSET 23.655350 0.125290 -12.815412
											CHANNELS 3 Xrotation Yrotation Zrotation
											JOINT LeftHandPinky2
											{
												OFFSET 8.425102 0.000000 0.000000
												CHANNELS 3 Xrotation Yrotation Zrotation
												JOINT LeftHandPinky3
												{
													OFFSET 8.147003 0.000000 0.000000
													CHANNELS 3 Xrotation Yrotation Zrotation
													End Site
													{
														OFFSET 0.000000 0.000000 0.000000
													}
												}
											}
										}
									}
								}
							}
						}
					}
					JOINT RightShoulder
					{
						OFFSET -3.249400 8.794197 -1.372250
						CHANNELS 3 Xrotation Yrotation Zrotation
						JOINT RightShoulder_split
						{
							OFFSET -3.249400 8.794197 -1.372250
							CHANNELS 3 Xrotation Yrotation Zrotation
							JOINT RightArm
							{
								OFFSET -11.953299 -2.279007 -0.146200
								CHANNELS 3 Xrotation Yrotation Zrotation
								JOINT RightForeArm
								{
									OFFSET -18.448900 0.000000 0.000000
									CHANNELS 3 Xrotation Yrotation Zrotation
									JOINT RightHand
									{
										OFFSET -29.527802 0.000000 0.000000
										CHANNELS 3 Xrotation Yrotation Zrotation
										JOINT RightHandThumb1
										{
											OFFSET -10.739754 -2.369614 9.225399
											CHANNELS 3 Xrotation Yrotation Zrotation
											JOINT RightHandThumb2
											{
												OFFSET -4.926170 -2.844131 2.844125
												CHANNELS 3 Xrotation Yrotation Zrotation
												JOINT RightHandThumb3
												{
													OFFSET -4.614891 -2.664413 2.664409
													CHANNELS 3 Xrotation Yrotation Zrotation
													JOINT RightHandThumb4
													{
														OFFSET -4.432465 -2.559082 2.559083
														CHANNELS 3 Xrotation Yrotation Zrotation
														End Site
														{
															OFFSET 0.000000 0.000000 0.000000
														}
													}
												}
											}
										}
										JOINT RightHandIndex1
										{
											OFFSET -26.467674 0.187653 6.405298
											CHANNELS 3 Xrotation Yrotation Zrotation
											JOINT RightHandIndex2
											{
												OFFSET -8.792900 0.000000 0.000000
												CHANNELS 3 Xrotation Yrotation Zrotation
												JOINT RightHandIndex3
												{
													OFFSET -10.075203 0.000000 0.000000
													CHANNELS 3 Xrotation Yrotation Zrotation
													End Site
													{
														OFFSET 0.000000 0.000000 0.000000
													}
												}
											}
										}
										JOINT RightHandMiddle1
										{
											OFFSET -25.764404 0.000000 0.000000
											CHANNELS 3 Xrotation Yrotation Zrotation
											JOINT RightHandMiddle2
											{
												OFFSET -9.393974 0.000000 0.000000
												CHANNELS 3 Xrotation Yrotation Zrotation
												JOINT RightHandMiddle3
												{
													OFFSET -10.771950 0.000000 0.000000
													CHANNELS 3 Xrotation Yrotation Zrotation
													End Site
													{
														OFFSET 0.000000 0.000000 0.000000
													}
												}
											}
										}
										JOINT RightHandRing1
										{
											OFFSET -24.660927 0.144547 -6.225808
											CHANNELS 3 Xrotation Yrotation Zrotation
											JOINT RightHandRing2
											{
												OFFSET -9.393799 0.000000 0.000000
												CHANNELS 3 Xrotation Yrotation Zrotation
												JOINT RightHandRing3
												{
													OFFSET -9.928497 0.000000 0.000000
													CHANNELS 3 Xrotation Yrotation Zrotation
													End Site
													{
														OFFSET 0.000000 0.000000 0.000000
													}
												}
											}
										}
										JOINT RightHandPinky1
										{
											OFFSET -23.655350 0.125290 -12.815412
											CHANNELS 3 Xrotation Yrotation Zrotation
											JOINT RightHandPinky2
											{
												OFFSET -8.425102 0.000000 0.000000
												CHANNELS 3 Xrotation Yrotation Zrotation
												JOINT RightHandPinky3
												{
													OFFSET -8.147003 0.000000 0.000000
													CHANNELS 3 Xrotation Yrotation Zrotation
													End Site
													{
														OFFSET 0.000000 0.000000 0.000000
													}
												}
											}
										}
									}
								}
							}
						}
					}
				}
			}
		}
	}
	JOINT LeftUpLeg
	{
		OFFSET 11.394100 -6.187798 -0.413800
		CHANNELS 3 Xrotation Yrotation Zrotation
		JOINT LeftLeg
		{
			OFFSET 0.430247 -32.302673 3.732800
			CHANNELS 3 Xrotation Yrotation Zrotation
			JOINT LeftFoot
			{
				OFFSET -0.430247 -48.264931 -6.423300
				CHANNELS 3 Xrotation Yrotation Zrotation
				JOINT LeftToeBase
				{
					OFFSET 4.230900 -16.068199 23.438400
					CHANNELS 3 Xrotation Yrotation Zrotation
					JOINT LeftToe_End
					{
						OFFSET 4.510700 0.695400 19.974600
						CHANNELS 3 Xrotation Yrotation Zrotation
						End Site
						{
							OFFSET 0.000000 0.000000 0.000000
						}
					}
				}
			}
		}
	}
	JOINT RightUpLeg
	{
		OFFSET -11.333700 -6.187798 -0.413800
		CHANNELS 3 Xrotation Yrotation Zrotation
		JOINT RightLeg
		{
			OFFSET -0.430392 -32.302628 3.733000
			CHANNELS 3 Xrotation Yrotation Zrotation
			JOINT RightFoot
			{
				OFFSET 0.430392 -48.264973 -6.423500
				CHANNELS 3 Xrotation Yrotation Zrotation
				JOINT RightToeBase
				{
					OFFSET -4.230900 -16.068199 23.438400
					CHANNELS 3 Xrotation Yrotation Zrotation
					JOINT RightToe_End
					{
						OFFSET -4.510700 0.695400 19.974600
						CHANNELS 3 Xrotation Yrotation Zrotation
						End Site
						{
							OFFSET 0.000000 0.000000 0.000000
						}
					}
				}
			}
		}
	}
}
MOTION
Frames: 4
Frame Time: 0.016667
-0.026179 143.908447 0.505253 -1.011772 1.597362 0.084395 -2.805113 -0.067906 0.234343 -5.611654 -0.102272 -0.620859 0.000000 0.000000 0.000000 -5.611650 -0.102272 -0.620860 -27.780263 0.884574 -2.478856 -5.939968 -1.809258 2.604352 0.000001 0.000000 -0.000000 7.248321 6.365627 32.385158 0.000000 0.000000 0.000000 -52.895321 -36.819887 5.857840 -23.466853 -23.506882 1.478706 -3.826416 -2.003303 0.833584 -23.505085 8.724619 4.055172 -11.818381 8.158635 13.633637 0.000009 0.000001 -0.000017 -0.000001 0.000000 0.000001 -0.793900 -9.944880 -73.989868 -8.742877 -2.825264 -82.562336 -0.000001 0.000000 -0.000001 -7.057138 -4.106578 -72.543999 -5.071188 -4.491854 -69.918434 -0.000000 -0.000001 -0.000005 -10.868848 6.242584 -70.785642 -0.409568 -6.819484 -77.462459 -0.000001 -0.000000 -0.000001 -15.058352 6.364045 -69.029088 0.828467 -8.182887 -68.648619 -0.000002 0.000001 0.000000 2.277538 -6.651283 -36.122572 0.000000 0.000000 0.000000 -64.303840 35.763881 7.685037 -24.527667 16.757147 0.686878 10.834993 10.092821 2.135996 -17.327321 6.468939 -26.575945 3.045288 -20.332857 1.155724 -0.000002 0.000025 0.000001 0.000001 -0.000001 0.000001 -8.189434 4.700918 83.344297 -5.502021 0.854512 81.248911 0.000000 -0.000000 -0.000000 -13.105697 1.845258 86.654924 -5.617167 1.089112 83.764586 0.000001 0.000000 -0.000000 -13.657544 -7.092626 77.657823 -0.194378 7.087305 77.421328 -0.000000 0.000000 0.000001 -17.941848 -11.668139 76.734853 1.092283 11.886545 73.232858 0.000000 0.000001 0.000001 -29.327388 8.451829 3.828944 42.004495 14.352522 1.460366 38.945974 2.074300 7.509593 -0.000001 0.000002 -0.000002 0.000002 -0.000001 0.000001 -10.425089 -7.623248 -4.491952 26.460009 -19.500252 2.088584 47.513589 0.311593 0.840063 0.000001 -0.000004 0.000003 0.000000 -0.000001 -0.000001 
0.225901 143.964294 0.194182 -0.858600 1.428364 0.188110 -2.727941 0.071539 0.189320 -5.454584 0.132120 -0.464096 0.000000 0.000000 0.000000 -5.454584 0.132120 -0.464096 -28.934860 1.054856 -3.177760 -5.198138 -1.919965 3.212581 -0.000002 -0.000000 -0.000000 7.446500 6.603387 32.450345 0.000000 0.000000 0.000000 -54.448909 -35.183759 3.471657 -24.716313 -26.798667 2.385714 -2.089427 -0.267380 0.161394 -23.495543 8.735333 4.099165 -11.816015 8.165979 13.633319 0.000007 -0.000001 -0.000017 -0.000001 0.000000 0.000001 -0.798128 -9.946876 -74.031382 -8.750727 -2.825441 -82.619758 0.000000 0.000000 0.000002 -7.063496 -4.107383 -72.604296 -5.077527 -4.493776 -69.977310 -0.000001 -0.000001 -0.000000 -10.882225 6.239432 -70.819008 -0.412540 -6.821511 -77.522845 -0.000000 0.000000 -0.000002 -15.087328 6.354702 -69.042257 0.827784 -8.184437 -68.710918 0.000002 0.000001 -0.000000 2.388919 -6.364262 -35.754585 0.000000 0.000000 0.000000 -64.004951 34.598217 7.322038 -24.670430 19.891101 0.003016 11.125939 8.673194 4.184493 -17.283785 6.418246 -26.304653 3.064534 -20.360353 1.166121 -0.000004 0.000025 -0.000003 0.000001 -0.000001 0.000000 -8.185386 4.699037 83.315761 -5.510747 0.853755 81.338121 0.000000 0.000000 0.000000 -13.046159 1.831960 86.514366 -5.595996 1.089997 83.530502 0.000000 -0.000001 -0.000000 -13.616067 -7.089683 77.376659 -0.170996 7.073160 77.042403 0.000001 0.000000 0.000000 -17.831254 -11.643991 76.290877 1.111502 11.863453 72.805828 0.000002 0.000000 0.000001 -30.694259 8.385509 3.238981 43.509978 10.388811 1.262252 38.745498 1.719246 3.974965 -0.130945 -0.066214 0.133194 -0.000002 0.000000 -0.000001 -12.693070 -7.401856 -6.064444 32.907882 -18.579720 3.156780 43.805230 0.805339 3.008873 0.104429 1.803729 0.387928 0.000002 -0.000001 0.000001 
0.513534 144.026855 -0.343247 -0.598732 0.921365 0.242488 -2.641601 0.294121 0.181466 -5.279451 0.526127 -0.270102 0.000000 0.000000 0.000000 -5.279449 0.526128 -0.270102 -29.410532 0.905853 -3.426295 -5.302065 -1.820671 3.677569 0.000001 0.000000 0.000000 7.870906 7.117304 32.582270 0.000000 0.000000 0.000000 -57.915865 -34.418450 -0.704282 -26.183272 -29.980118 4.243760 1.291424 1.133885 -1.465712 -23.490595 8.740819 4.122855 -11.815331 8.169571 13.633529 0.000010 -0.000002 -0.000017 -0.000000 -0.000000 -0.000001 -0.800589 -9.948108 -74.055725 -8.755202 -2.825502 -82.652645 -0.000000 0.000000 -0.000001 -7.067255 -4.108026 -72.638017 -5.081072 -4.494813 -70.010573 0.000001 -0.000001 -0.000003 -10.889683 6.237603 -70.837825 -0.414256 -6.822640 -77.556750 -0.000001 0.000000 -0.000002 -15.103469 6.349273 -69.049627 0.827415 -8.185259 -68.745144 -0.000001 0.000000 0.000001 2.490095 -6.094540 -35.392852 0.000000 0.000000 0.000000 -63.972385 33.630724 7.079513 -24.776952 22.588505 -0.847461 11.676235 7.518022 6.413613 -17.301679 6.439000 -26.415055 3.056114 -20.348436 1.161311 -0.000002 0.000026 -0.000001 -0.000001 0.000000 -0.000000 -8.187157 4.700025 83.323875 -5.507089 0.854114 81.300295 0.000000 -0.000000 0.000000 -13.070172 1.838110 86.568249 -5.604639 1.089754 83.625414 0.000000 0.000000 0.000000 -13.632588 -7.090495 77.490135 -0.180624 7.078958 77.198445 -0.000001 0.000001 0.000000 -17.876748 -11.653720 76.473311 1.103603 11.872890 72.981548 -0.000001 -0.000001 0.000001 -32.561209 8.284948 2.503360 45.821072 5.142586 0.947054 37.723066 1.851013 0.938763 -0.133679 -0.247616 0.149176 0.000001 0.000000 -0.000001 -15.273319 -7.105780 -7.612930 39.961255 -14.965153 4.211192 38.534459 1.466989 7.404085 0.675282 2.489631 1.117268 -0.000003 -0.000001 0.000002 
0.830545 144.141006 -1.034791 -0.254074 0.076539 0.245061 -2.551023 0.577723 0.213312 -5.097276 1.039579 -0.044115 0.000000 0.000000 0.000000 -5.097279 1.039580 -0.044115 -29.440905 0.570001 -3.397076 -5.910966 -1.569222 4.078034 -0.000000 -0.000000 -0.000000 8.458166 7.825092 32.740734 0.000000 0.000000 0.000000 -62.473869 -34.058824 -5.800715 -27.569543 -32.988861 6.946102 5.686078 2.103967 -3.638410 -23.494015 8.736943 4.107982 -11.816693 8.166786 13.634046 0.000007 -0.000005 -0.000018 0.000001 -0.000001 -0.000001 -0.799353 -9.947597 -74.043595 -8.752812 -2.825441 -82.635132 -0.000000 -0.000000 -0.000002 -7.065408 -4.107959 -72.618831 -5.079108 -4.494235 -69.992159 -0.000001 -0.000000 -0.000000 -10.885401 6.238504 -70.827347 -0.413291 -6.821994 -77.537619 -0.000001 0.000000 -0.000003 -15.094180 6.352028 -69.045453 0.827623 -8.184770 -68.724762 -0.000002 0.000000 0.000002 2.587534 -5.828014 -35.023960 0.000000 0.000000 0.000000 -64.095233 32.796321 6.908414 -24.852734 25.024789 -1.814139 12.403236 6.558978 8.612022 -17.355005 6.501281 -26.748628 3.032317 -20.314605 1.148214 -0.000001 0.000025 -0.000002 -0.000002 0.000001 0.000000 -8.192450 4.702506 83.357978 -5.496467 0.854970 81.191852 0.000000 0.000000 0.000000 -13.143541 1.854599 86.740117 -5.630820 1.088599 83.913840 0.000001 0.000000 -0.000000 -13.683657 -7.094124 77.835927 -0.209469 7.096330 77.666327 -0.000001 0.000000 0.000001 -18.013924 -11.684592 77.021270 1.079840 11.901428 73.508169 -0.000002 -0.000000 0.000001 -34.551133 8.167706 1.681165 48.320378 -0.639661 0.559387 36.091157 2.319246 -1.688598 -0.193773 -0.451747 0.151179 -0.000001 0.000000 -0.000001 -17.034442 -6.773110 -9.042619 45.619025 -10.041755 5.059353 33.031225 2.167136 13.024928 1.065573 2.221603 1.522310 0.000002 0.000001 -0.000002 
